<?xml version="1.0" encoding="UTF-8" standalone="no" ?>
<svg
  xmlns:dc="http://purl.org/dc/elements/1.1/"
  xmlns:cc="http://creativecommons.org/ns#"
  xmlns:rdf="http://www.w3.org/1999/02/22-rdf-syntax-ns#"
  xmlns:svg="http://www.w3.org/2000/svg"
  xmlns="http://www.w3.org/2000/svg"
  xmlns:sodipodi="http://sodipodi.sourceforge.net/DTD/sodipodi-0.dtd"
  xmlns:inkscape="http://www.inkscape.org/namespaces/inkscape"
  height="654.9"
  width="662.5"
  version="1.1"
  id="svg20"
  sodipodi:docname="codewars-logo.svg"
  inkscape:version="1.0.2 (e86c8708, 2021-01-15)"
>
  <metadata id="metadata26">
    <rdf:RDF>
      <cc:Work rdf:about="">
        <dc:format>image/svg+xml</dc:format>
        <dc:type rdf:resource="http://purl.org/dc/dcmitype/StillImage" />
        <dc:title />
      </cc:Work>
    </rdf:RDF>
  </metadata>
  <defs id="defs24" />
  <sodipodi:namedview
    pagecolor="#ffffff"
    bordercolor="#666666"
    borderopacity="1"
    objecttolerance="10"
    gridtolerance="10"
    guidetolerance="10"
    inkscape:pageopacity="0"
    inkscape:pageshadow="2"
    inkscape:window-width="1803"
    inkscape:window-height="1017"
    id="namedview22"
    showgrid="false"
    inkscape:zoom="1.02153"
    inkscape:cx="328.31323"
    inkscape:cy="328.42894"
    inkscape:window-x="0"
    inkscape:window-y="111"
    inkscape:window-maximized="0"
    inkscape:current-layer="svg20"
  />
  <path
    style="fill:#222325;stroke-width:0.978924;stroke-opacity:0.75"
    d="m 360.64867,596.84066 c -3.44407,-1.09745 -12.11581,-8.75656 -12.9573,-11.44423 -0.38853,-1.2409 -1.14558,-1.12717 -4.88682,0.7342 -5.45398,2.7135 -12.4815,2.8501 -17.9868,0.34966 -4.56931,-2.07534 -9.84982,-7.98607 -10.73498,-12.01621 -0.78457,-3.5721 -1.41197,-3.87494 -5.45638,-2.63367 -7.30468,2.24187 -17.66095,-4.01769 -19.06954,-11.52604 -0.34015,-1.8132 -0.83253,-3.29673 -1.09417,-3.29673 -0.26164,0 -2.43607,2.1804 -4.83207,4.84532 -10.24939,11.3998 -27.48266,14.48713 -41.401,7.41697 -5.06635,-2.57357 -12.2124,-9.35811 -14.46232,-13.73067 -0.83113,-1.61523 -1.63619,-3.08115 -1.78905,-3.25762 -0.15286,-0.17646 -2.55196,1.24343 -5.33135,3.15531 -2.77938,1.91188 -6.67306,3.92599 -8.65262,4.47581 -16.74146,4.64987 -33.69829,-6.23689 -36.91264,-23.69895 -0.62514,-3.39607 -0.86234,-3.60983 -3.25887,-2.93677 -1.42155,0.39925 -5.24918,0.70839 -8.50583,0.687 -14.50985,-0.0953 -26.13904,-13.6107 -24.60397,-28.59463 l 0.52651,-5.13935 h -4.85533 c -8.69075,0 -16.30399,-4.8489 -20.74953,-13.21547 -2.97414,-5.59738 -2.87917,-15.11995 0.20949,-21.00563 1.62809,-3.10243 1.94392,-4.4793 1.09259,-4.76308 -2.68594,-0.89531 -8.28,-6.76643 -9.95026,-10.44307 -3.31657,-7.30054 -2.04629,-15.21532 3.49708,-21.78945 l 2.68267,-3.18151 -2.50825,-2.98089 c -3.80431,-4.52116 -5.02601,-9.63061 -3.62915,-15.17801 0.63629,-2.52698 1.02694,-4.68301 0.86809,-4.79119 -0.15884,-0.10819 -2.4402,-0.99458 -5.06968,-1.96976 -3.092342,-1.14685 -6.769384,-3.76157 -10.411054,-7.40324 -7.431918,-7.43192 -10.156448,-14.11028 -10.201584,-25.0061 -0.02871,-6.93147 0.345338,-8.65626 3.068988,-14.15141 1.705927,-3.44182 2.906487,-6.5737 2.667911,-6.95973 -0.238578,-0.38603 -1.649669,-0.96892 -3.135759,-1.29532 -5.171338,-1.13582 -12.209092,-7.53145 -15.704092,-14.27125 -3.033787,-5.85039 -3.255915,-6.89204 -2.916063,-13.67471 0.445145,-8.8841 2.47734,-13.48707 8.723005,-19.75781 l 4.566154,-4.58449 -2.432189,-2.26798 c -7.359783,-6.86289 -9.760295,-20.20623 -5.294717,-29.43088 2.596206,-5.36304 9.568704,-11.89636 14.396462,-13.48967 1.839047,-0.60694 3.343721,-1.23414 3.343721,-1.39377 0,-0.15963 -1.183886,-2.40845 -2.630858,-4.99736 -8.077069,-14.45145 2.733283,-33.44508 19.372365,-34.03695 l 4.77952,-0.17002 0.0292,-3.9157 c 0.0974,-13.08226 14.86854,-23.66585 26.73361,-19.15477 2.17705,0.82772 2.45861,0.62925 3.00862,-2.12082 0.86793,-4.33962 4.86966,-9.14729 9.20655,-11.06073 l 3.73404,-1.64745 -0.0326,-7.97067 c -0.0272,-6.65155 0.40644,-8.9164 2.62036,-13.68514 6.08808,-13.11365 17.49758,-21.06592 30.72351,-21.4139 l 5.26646,-0.13857 -0.74605,-3.4977 c -1.38779,-6.50638 -0.5183,-12.81179 2.65576,-19.25921 6.31831,-12.834328 20.11028,-18.774863 33.88645,-14.595718 2.64301,0.801784 4.89862,1.462557 5.01247,1.468386 0.11385,0.0059 0.66304,-1.683014 1.22043,-3.752983 3.4995,-12.996193 17.65517,-21.806129 30.20159,-18.796292 2.72765,0.654355 7.03372,2.505251 9.56904,4.113103 3.55924,2.257203 4.77717,2.628645 5.34475,1.630023 5.11232,-8.995056 8.75984,-12.07428 16.76123,-14.149816 5.32178,-1.380451 11.1891,-0.646821 16.40703,2.051479 2.77509,1.435052 9.29946,8.143049 10.01864,10.300618 0.31105,0.933137 1.37552,0.754204 4.28821,-0.720837 6.08177,-3.079911 9.63778,-3.493206 15.46937,-1.797918 6.43752,1.871438 12.88093,8.243485 13.91623,13.762111 0.52975,2.823872 1.00422,3.424698 2.26342,2.866223 3.92548,-1.74102 8.97587,-1.523569 13.30666,0.572936 4.91998,2.381716 7.75593,5.753953 9.05503,10.767355 l 0.86487,3.33764 2.69672,-3.535577 c 3.76079,-4.930652 11.80141,-10.131576 18.68549,-12.086357 13.82671,-3.926186 29.66245,1.87351 37.52447,13.743006 1.68009,2.536458 3.20962,5.076488 3.39895,5.644508 0.18934,0.56801 2.39574,-0.53318 4.90311,-2.44709 5.85626,-4.470195 10.55216,-6.04262 17.86055,-5.980631 13.93549,0.1182 25.12812,9.995301 28.31639,24.988201 l 0.55286,2.59978 7.60997,-0.5216 c 6.47668,-0.44392 8.37805,-0.19118 12.7674,1.69706 10.25552,4.41181 16.79827,15.76495 15.49172,26.88163 l -0.59204,5.03733 4.6365,0.0706 c 5.82571,0.0887 11.52012,2.43043 15.73516,6.4708 8.58418,8.22846 9.81826,19.65276 3.36185,31.12188 -0.17961,0.31906 1.4345,1.80054 3.58693,3.29217 4.78493,3.31597 8.87295,11.00327 8.87295,16.68512 0,4.33438 -4.21747,13.996 -6.4902,14.86812 -1.93558,0.74276 -1.66422,2.08599 1.08037,5.34775 3.37875,4.01541 4.77356,9.71797 3.49926,14.30638 -0.5584,2.01068 -1.01774,3.9257 -1.02074,4.25559 -0.003,0.3299 2.82918,1.9953 6.29374,3.7009 17.19274,8.46396 24.38157,28.48215 16.3737,45.59459 -1.7206,3.67685 -3.01061,6.76043 -2.86667,6.8524 0.14394,0.092 2.76454,1.3654 5.82356,2.82983 18.12487,8.67687 22.01137,32.14488 7.65762,46.23932 l -4.84807,4.76049 2.86135,2.9573 c 6.79842,7.02638 9.04401,19.31315 5.14198,28.13434 -2.44874,5.53578 -8.12798,11.24244 -13.59519,13.66085 -2.33636,1.03349 -4.24793,2.02322 -4.24793,2.19941 0,0.1762 1.17471,2.42215 2.61047,4.99099 8.07199,14.44236 -3.20477,33.754 -19.71019,33.754 h -4.4366 v 3.74016 c 0,2.14025 -1.15156,6.01163 -2.69204,9.05028 -4.47698,8.83095 -14.31518,13.15592 -23.83432,10.47782 -2.31785,-0.6521 -2.64315,-0.38023 -3.67805,3.074 -1.25773,4.19794 -7.86237,10.85684 -10.76835,10.85684 -1.61433,0 -1.81061,0.87374 -1.8143,8.07612 -0.003,5.96455 -0.56659,9.53544 -2.15534,13.65758 -4.57678,11.87489 -17.01301,21.20037 -29.45991,22.09095 l -6.53886,0.46784 0.45533,7.09516 c 0.5778,9.00338 -1.42924,15.39194 -6.72603,21.4094 -7.41942,8.42891 -18.64179,11.93555 -28.77244,8.99049 -3.11478,-0.9055 -5.97078,-1.28659 -6.34664,-0.84688 -0.37587,0.43971 -1.19682,2.6081 -1.82432,4.81865 -2.69573,9.4963 -13.9417,17.37394 -24.64115,17.26075 -6.17425,-0.0653 -9.67272,-1.20998 -15.09118,-4.93766 -2.77866,-1.9116 -3.95098,-2.28552 -4.26028,-1.35886 -0.23468,0.70315 -1.81648,3.12598 -3.51509,5.38408 -5.9735,7.94102 -17.18255,11.34505 -27.02761,8.20791 z m -7.3107,-39.93363 c 0.36695,-0.59374 2.92591,-2.13124 5.68658,-3.41667 7.18676,-3.3463 13.56995,-3.16074 20.72395,0.60249 3.09356,1.6273 5.68433,2.83872 5.75725,2.69204 0.0729,-0.14669 0.83677,-1.82108 1.69745,-3.72088 5.22301,-11.52887 18.24386,-17.57407 30.89011,-14.34135 2.91777,0.74585 3.18826,0.6042 3.73886,-1.95785 1.5239,-7.09115 4.03053,-11.84643 8.71262,-16.52851 4.9248,-4.92481 11.74035,-8.25915 16.88207,-8.25915 2.70385,0 2.73228,-0.26092 0.68366,-6.27331 -2.37459,-6.96903 -1.49904,-18.10666 1.96942,-25.05225 2.93367,-5.8747 8.10059,-11.73258 13.07251,-14.82069 l 3.17398,-1.97139 -2.40949,-3.15901 c -3.9186,-5.13754 -5.6626,-10.41472 -5.74007,-17.36888 -0.0594,-5.33135 0.45193,-7.5414 2.87661,-12.43336 l 2.94884,-5.94947 -4.13301,-3.45477 c -2.32764,-1.94566 -5.29678,-5.83342 -6.79719,-8.90013 -2.44256,-4.99243 -2.6212,-6.13402 -2.14766,-13.72433 0.49692,-7.96502 0.43709,-8.27931 -1.57774,-8.28814 -3.48101,-0.0153 -11.80678,-5.43161 -14.64521,-9.52746 -3.19291,-4.60738 -4.58021,-9.05538 -4.58021,-14.68527 v -4.16688 h -4.44415 c -7.61154,0 -15.44108,-5.59777 -17.55645,-12.55208 -0.49772,-1.63626 -1.14683,-2.08368 -2.3162,-1.59648 -5.10757,2.12795 -9.26596,2.62169 -12.90301,1.532 -4.74076,-1.42037 -9.64477,-5.46389 -11.24639,-9.27302 -1.15345,-2.74324 -1.53564,-2.90229 -7.173,-2.9853 l -5.95462,-0.0877 -1.53226,4.01306 c -0.84274,2.20718 -3.0774,5.81821 -4.9659,8.0245 -3.31557,3.87351 -3.36557,4.04788 -1.45384,5.071 3.14858,1.68507 5.22576,6.63315 4.55238,10.84428 -0.55599,3.47696 -0.39091,3.77539 3.08,5.56832 8.62932,4.45754 11.81814,14.90163 7.2347,23.69518 l -2.18583,4.19359 4.08657,3.49795 c 4.82556,4.13053 6.76859,8.25995 6.76859,14.38498 0,5.92248 -1.87317,10.12094 -6.21719,13.93505 -1.96463,1.72497 -3.57205,3.37383 -3.57205,3.66415 0,0.29031 1.29724,2.31862 2.88274,4.50735 6.66239,9.19717 5.84045,21.26149 -2.03029,29.80023 -2.21164,2.39934 -5.84449,5.00432 -8.27162,5.93125 -2.38035,0.90907 -4.32792,1.75787 -4.32792,1.88624 0,0.12836 0.66078,2.10622 1.46839,4.39524 5.51093,15.61963 -5.59742,32.53503 -22.8705,34.82639 -4.60181,0.61045 -5.02929,0.88498 -5.03429,3.23302 -0.0168,7.91718 -5.66271,18.1451 -12.60451,22.83401 -2.48666,1.67964 -4.66381,3.16183 -4.83811,3.29375 -0.35606,0.26949 2.63844,6.29534 3.12842,6.29534 0.17266,0 1.68882,-0.68588 3.36924,-1.52419 7.07204,-3.528 19.30051,-0.68823 23.91543,5.55379 2.25164,3.04549 3.18558,3.43056 4.22834,1.74333 z M 243.2616,506.46683 c 4.66607,-2.42478 6.33405,-2.74241 14.56911,-2.7744 8.15485,-0.0317 10.01112,0.29702 15.07766,2.66999 3.17783,1.48838 5.8769,2.58967 5.99795,2.44731 0.12103,-0.14234 1.15154,-2.10621 2.29002,-4.36414 4.49248,-8.90987 13.72556,-14.87094 24.37221,-15.73521 5.65095,-0.45873 6.17622,-0.69909 6.67562,-3.05469 2.57186,-12.13097 9.15104,-19.29536 21.08333,-22.95867 1.32937,-0.40813 1.50889,-1.59401 1.10203,-7.28024 -0.28309,-3.95659 -0.006,-8.24876 0.66495,-10.28013 1.85274,-5.61386 6.61407,-11.34843 11.32122,-13.63534 l 4.35014,-2.11347 -1.84434,-3.00164 c -3.99361,-6.4996 -3.42726,-15.62559 1.34084,-21.60536 l 2.20359,-2.76355 -3.70386,-3.70386 c -6.27643,-6.27643 -7.14531,-14.74124 -2.25311,-21.95031 l 2.30267,-3.39315 -2.41782,-3.56284 c -1.32979,-1.95956 -2.41742,-4.49253 -2.41694,-5.62881 8.1e-4,-1.95708 -0.48927,-2.06597 -9.29803,-2.06597 -9.26475,0 -9.29891,0.009 -9.30429,2.4473 -0.009,3.96929 -3.38815,8.48501 -7.32124,9.78305 -3.22686,1.06496 -3.5024,1.43212 -2.95274,3.93469 0.84422,3.84372 -1.03157,10.08267 -4.14328,13.78073 -3.2425,3.85349 -7.69112,5.78494 -13.32417,5.78494 h -4.31205 l -0.47732,4.96754 c -0.52329,5.44595 -2.4204,8.56825 -7.90161,13.00456 -4.5094,3.64975 -12.01396,4.58136 -17.71536,2.19917 -2.06889,-0.86444 -3.88033,-1.57171 -4.02542,-1.57171 -0.14507,0 -0.55716,1.16891 -0.91573,2.59759 -1.11569,4.44524 -6.28219,10.94828 -10.80298,13.59765 -8.36734,4.90359 -18.68973,4.2224 -26.28887,-1.73484 l -3.75869,-2.94657 -2.74571,3.33105 c -1.51016,1.83206 -4.89115,4.49872 -7.51333,5.92588 -10.83478,5.89703 -22.25343,4.27435 -31.11373,-4.4215 -2.85336,-2.8004 -5.37336,-5.69796 -5.6,-6.439 -0.32594,-1.06575 -1.31818,-0.8851 -4.74719,0.86425 -5.18537,2.64538 -14.51878,3.58746 -20.22971,2.04193 -2.24945,-0.60876 -6.41658,-2.67258 -9.26031,-4.58627 -4.8277,-3.2488 -5.25437,-3.36459 -6.43724,-1.74691 -1.10517,1.51141 -0.88852,1.97204 1.69761,3.60947 1.63045,1.03232 4.03221,3.69907 5.33723,5.92608 3.35781,5.73008 3.95724,10.86506 1.95398,16.73863 -1.17089,3.43304 -1.33092,4.96679 -0.54553,5.22858 0.61127,0.20376 3.17733,1.76199 5.70235,3.46274 6.28657,4.23436 10.04698,11.47908 10.04698,19.3563 v 5.76176 l 6.11827,0.0215 c 7.12525,0.0251 13.25969,2.42467 18.22997,7.13109 3.43653,3.25409 7.93011,11.58524 7.94668,14.7332 0.006,1.17661 0.50594,1.62738 1.41672,1.27787 12.52171,-4.80503 25.26115,-1.93714 33.49289,7.53987 l 3.76744,4.33738 4.5199,-4.22262 c 2.48595,-2.32244 6.8911,-5.45484 9.78924,-6.96089 z m 274.96831,-53.9593 c 0.0299,-9.40591 9.85826,-19.7302 18.85039,-19.80171 2.58887,-0.0206 2.67788,-0.18243 2.09721,-3.81369 -1.38738,-8.6762 4.50485,-19.59248 12.72261,-23.57062 l 4.31033,-2.08659 -3.24453,-5.38807 c -6.1956,-10.28881 -5.25736,-21.26394 2.57887,-30.16636 l 4.07492,-4.62935 -4.0091,-4.09563 c -7.88324,-8.05342 -10.68626,-19.30525 -7.29775,-29.29453 2.02236,-5.96188 1.9386,-6.61612 -0.84713,-6.61612 -3.97654,0 -12.81568,-4.30037 -17.5049,-8.51638 -6.52119,-5.86311 -10.85401,-14.35089 -11.51232,-22.55206 l -0.49211,-6.13067 -6.47371,-0.01 c -10.68936,-0.0158 -21.10862,-6.07169 -25.6684,-14.91902 -1.04059,-2.01903 -2.04948,-3.67097 -2.24198,-3.67097 -0.19251,0 -1.93147,0.66078 -3.86436,1.46839 -8.37016,3.49727 -20.9754,0.9664 -27.74218,-5.57003 l -3.11807,-3.01195 -4.19757,3.59295 c -5.09247,4.35896 -13.10469,6.93537 -18.75708,6.03151 -2.18969,-0.35014 -6.17221,-1.8291 -8.85006,-3.28656 -4.02422,-2.19026 -4.95079,-2.39528 -5.34131,-1.18186 -0.25988,0.80745 -2.28644,3.29568 -4.50346,5.52942 -4.60943,4.64414 -10.49,6.69833 -16.34411,5.70928 -3.61661,-0.61079 -3.80545,-0.51542 -3.80545,1.9221 0,8.92111 -10.75008,17.64584 -19.41566,15.7577 -2.33757,-0.50933 -2.82123,-0.11088 -4.63174,3.81561 l -2.02161,4.38435 2.73393,4.07073 c 1.50367,2.23889 3.25609,5.51471 3.89427,7.27958 1.10235,3.04851 1.39362,3.20175 5.82909,3.06675 3.88309,-0.11817 5.14864,0.31733 7.5204,2.588 2.56275,2.45351 2.98281,2.57207 4.14624,1.17022 3.16413,-3.81255 10.50891,-5.74982 16.12264,-4.25254 3.71322,0.99037 11.42948,7.5028 12.36972,10.43989 0.31616,0.98758 1.40418,0.8259 4.79617,-0.71269 5.28461,-2.39707 9.57714,-2.54935 14.45268,-0.51272 6.67112,2.78668 11.07121,8.22554 12.34284,15.2567 l 0.64412,3.56156 3.98749,-0.89593 c 5.09848,-1.14556 9.93778,-0.26942 15.79229,2.85913 8.43426,4.50712 13.18753,13.60398 12.18481,23.31939 l -0.54523,5.28287 h 3.1633 c 4.57317,0 12.79619,4.44111 16.72793,9.03446 6.52713,7.62549 8.19637,19.71454 3.94514,28.57192 l -1.83993,3.83352 2.38245,1.55056 c 5.56693,3.62309 9.63454,8.26996 12.15467,13.88556 2.3022,5.12997 2.62646,6.93272 2.24707,12.49282 -0.24385,3.57376 -0.77842,7.26865 -1.18792,8.21087 -0.57589,1.32507 -0.27734,1.71311 1.31804,1.71311 1.30968,0 2.06458,-0.62534 2.06805,-1.71311 z M 224.09443,393.69968 c 7.67047,-6.75182 17.23398,-7.92772 26.18437,-3.21954 l 5.3729,2.82631 2.9233,-4.14731 c 3.98159,-5.64873 10.45804,-8.75329 16.95751,-8.12877 4.58701,0.44076 4.87712,0.32878 5.39949,-2.08419 2.19139,-10.12272 10.80938,-16.96755 19.34652,-15.36597 2.92844,0.54937 3.25548,0.33836 4.40576,-2.84268 0.68339,-1.88986 2.24728,-4.19399 3.47531,-5.12031 l 2.23279,-1.6842 -3.59257,-4.54494 c -1.97591,-2.49972 -4.15994,-5.91471 -4.85339,-7.58887 -1.04453,-2.52167 -1.56702,-2.88005 -3.04544,-2.08881 -3.26262,1.7461 -8.4512,1.09339 -11.4646,-1.44223 l -2.84905,-2.39732 -3.52879,2.51077 c -4.17248,2.96877 -10.81633,3.95697 -15.72089,2.33832 -3.25998,-1.07589 -7.98442,-5.44845 -10.30782,-9.54012 -0.84926,-1.49559 -1.31519,-1.58284 -2.98728,-0.55942 -7.38311,4.51892 -18.00818,2.91987 -23.89502,-3.59616 -2.99357,-3.31353 -5.53438,-8.95662 -5.55261,-12.33224 -0.003,-0.63266 -2.49453,-0.87027 -6.65766,-0.63504 -8.28988,0.46842 -14.16222,-1.99491 -19.66872,-8.25062 -4.51176,-5.12562 -6.46628,-11.33506 -5.67387,-18.02567 0.57368,-4.8438 0.56093,-4.87169 -2.22813,-4.87169 -4.5546,0 -14.7367,-5.86948 -18.31057,-10.55514 -5.6007,-7.34301 -6.92107,-18.40194 -3.1811,-26.64397 l 1.99891,-4.40515 -2.24201,-1.46839 c -8.50477,-5.57014 -13.52921,-13.62248 -14.27102,-22.87125 -0.26499,-3.30385 -0.0363,-7.61968 0.50812,-9.59072 0.85845,-3.10776 0.75766,-3.64447 -0.7589,-4.04106 -1.40499,-0.36741 -1.87584,0.33718 -2.39488,3.58372 -1.41364,8.84218 -8.51906,16.15349 -17.2478,17.74759 l -3.48742,0.63689 -0.0172,6.04376 c -0.0265,9.31408 -4.83451,17.01261 -13.33278,21.34811 l -3.70873,1.89205 2.31579,3.14889 c 7.61704,10.35722 6.58297,24.11387 -2.53392,33.70976 l -2.99372,3.15101 4.51222,4.82394 c 2.48172,2.65316 5.26511,6.52139 6.1853,8.59607 2.33311,5.26024 2.35007,17.35853 0.0305,21.72847 -0.95539,1.79986 -1.59446,3.39787 -1.42015,3.55112 0.1743,0.15325 2.90223,1.02087 6.06208,1.92805 14.2304,4.08548 24.49071,16.35444 25.80583,30.85782 l 0.51884,5.72183 6.52304,-0.0408 c 10.531,-0.0659 21.03441,6.10788 25.59291,15.04329 l 1.88236,3.68972 3.67556,-1.57749 c 8.73143,-3.74736 21.54011,-1.32636 28.14867,5.32045 1.61523,1.62457 3.08944,3.01042 3.27602,3.07965 0.18658,0.0692 2.25296,-1.55862 4.59196,-3.61748 z m 72.25055,-73.86048 c 1.92974,0.36889 2.71096,0.0346 3.11328,-1.33244 0.29541,-1.0037 2.11522,-4.96578 4.04405,-8.80461 l 3.50694,-6.9797 -2.21506,-2.99604 c -1.80839,-2.44599 -2.1073,-3.78226 -1.62808,-7.2785 0.57494,-4.19468 0.51652,-4.30795 -2.8496,-5.52517 -4.41302,-1.59576 -8.91368,-7.78312 -9.75829,-13.41535 -0.52854,-3.5246 -0.18961,-5.27892 1.79443,-9.28792 l 2.44604,-4.94256 -4.66564,-4.66565 c -6.88434,-6.88433 -8.07979,-14.60855 -3.59894,-23.25407 1.53045,-2.95293 5.36969,-6.6311 7.74946,-7.42435 0.67847,-0.22616 0.29277,-1.19169 -0.98743,-2.4719 -2.9073,-2.90729 -5.9282,-9.09806 -6.6538,-13.63566 -0.78969,-4.93846 0.99364,-11.39037 4.59525,-16.62512 2.88007,-4.18604 9.87725,-9.12033 12.93328,-9.12033 1.99528,0 1.99518,0.0248 0.0276,-5.99075 -4.05057,-12.3839 2.2715,-25.96972 14.81498,-31.83665 2.69204,-1.25914 6.70545,-2.29366 8.91869,-2.29892 l 4.02407,-0.01 0.60165,-5.08003 c 0.33091,-2.79402 1.73855,-7.40377 3.12809,-10.24389 2.51514,-5.14077 10.29863,-13.06487 12.83303,-13.06487 1.68538,0 1.66797,-0.42368 -0.16296,-3.96431 -1.75024,-3.38457 -1.27714,-3.26668 -5.69742,-1.41977 -7.63444,3.18988 -17.09904,0.87505 -22.75347,-5.56499 l -3.00721,-3.425032 -3.83686,2.731582 c -7.71302,5.49114 -19.80406,5.85015 -26.25042,0.77944 -3.29115,-2.58881 -3.89811,-2.38865 -5.79521,1.91122 -2.24504,5.08849 -7.93804,10.77083 -13.06174,13.03729 -4.38477,1.93959 -11.91146,2.47065 -18.19911,1.28407 -3.56932,-0.67359 -3.67096,-0.61277 -3.67096,2.19659 0,4.50086 -5.48933,14.48033 -9.87628,17.95486 -4.06509,3.21962 -12.25375,6.78354 -15.58624,6.78354 -2.32165,0 -2.33152,0.13214 -0.46837,6.27385 2.94989,9.72403 1.37863,19.93764 -4.46912,29.05058 -2.76804,4.31362 -9.8665,10.89169 -12.81331,11.87396 -0.54953,0.18317 0.55267,2.63903 2.44934,5.45747 5.53194,8.22043 6.12428,20.28173 1.43949,29.31145 l -2.46335,4.74802 4.39417,3.82246 c 2.60336,2.26465 5.38711,5.99131 6.83054,9.14418 2.14356,4.68216 2.3734,6.24021 1.91251,12.96458 l -0.52386,7.64288 4.44307,1.5139 c 9.89182,3.37049 15.80835,11.03284 16.65403,21.56827 0.37913,4.72306 0.82511,6.12006 1.83062,5.73421 0.73116,-0.28058 3.61014,0.037 6.39773,0.70575 3.76891,0.90414 6.15611,2.30364 9.31115,5.45868 2.33355,2.33355 4.24956,4.80505 4.2578,5.49223 0.0381,3.1772 1.57635,3.93653 4.70111,2.32065 7.92179,-4.09651 19.2734,0.62625 22.58621,9.39685 0.8849,2.34273 1.31267,2.54585 3.83694,1.8219 1.56254,-0.44813 4.00027,-0.59318 5.41717,-0.32232 z m 41.51032,-28.61049 c 4.75164,0.58354 5.20209,0.46039 6.00593,-1.64186 1.13968,-2.98059 3.90087,-5.39195 7.08341,-6.18599 2.37794,-0.5933 2.52867,-0.9482 2.08281,-4.90389 -1.09628,-9.72612 6.98217,-18.52278 17.01045,-18.52278 h 5.26367 l 0.0161,-3.95066 c 0.0313,-7.67901 6.27203,-14.90539 14.87227,-17.2212 2.9956,-0.80662 5.00197,-0.68753 9.25715,0.54948 2.98795,0.86862 5.51897,1.44311 5.6245,1.27665 0.10553,-0.16647 1.01311,-2.19035 2.01684,-4.49753 2.06794,-4.75339 7.94928,-10.50232 12.83084,-12.54196 7.2102,-3.01261 18.0397,-1.13204 24.7862,4.30421 l 2.3476,1.89167 2.92601,-3.33253 c 7.61199,-8.66958 20.22459,-11.56876 30.19915,-6.94169 5.45175,2.52899 12.11581,8.46597 13.14595,11.71165 0.32632,1.02815 0.88631,1.71249 1.24443,1.52078 6.4208,-3.43743 10.74737,-4.77576 15.66455,-4.84548 7.12809,-0.10107 12.07213,1.47663 18.15542,5.79362 3.74189,2.65541 4.96114,3.10642 5.61383,2.0766 1.2738,-2.00986 1.16614,-2.22392 -3.43021,-6.82027 -6.62667,-6.62668 -8.00127,-14.53688 -4.09278,-23.5521 0.53636,-1.23713 -0.0974,-2.05606 -2.54682,-3.29109 -8.69931,-4.38624 -13.78432,-12.33173 -13.78432,-21.5383 v -6.00669 l -4.66513,0.44826 c -6.17844,0.59367 -13.29881,-1.84617 -18.57977,-6.36647 -4.09138,-3.50207 -8.78623,-11.66456 -8.8053,-15.30895 -0.008,-1.50327 -0.48686,-1.70757 -2.7016,-1.15228 -1.48062,0.37123 -5.6287,0.91072 -9.21797,1.19889 -9.39758,0.75448 -15.46237,-1.48044 -22.14107,-8.15914 l -5.23551,-5.23551 -3.11668,3.27288 c -10.75409,11.29301 -26.26283,14.21711 -40.37609,7.61272 l -5.99813,-2.80686 -1.26663,3.50279 c -0.69664,1.92654 -3.5325,5.76868 -6.30189,8.53807 -5.62139,5.62139 -12.32733,8.47075 -20.62277,8.76262 l -4.88272,0.1718 -0.67974,3.98175 c -1.55947,9.13507 -9.92909,18.87004 -18.10307,21.05625 l -4.15569,1.11147 0.56533,7.39576 c 0.41812,5.47001 0.17618,8.32347 -0.92916,10.95861 -1.98461,4.73129 -7.77068,11.02365 -11.96833,13.01556 l -3.38512,1.60635 1.93794,3.61578 c 3.90376,7.28356 3.33186,14.87996 -1.5577,20.69088 l -2.46883,2.93402 3.80764,3.80763 c 6.41314,6.41314 7.29616,15.47699 2.14569,22.02475 -2.35324,2.99166 -2.41786,3.97503 -0.37275,5.67233 0.8637,0.71681 1.93855,2.27167 2.38854,3.45524 0.75367,1.98231 1.15078,2.07634 5.03736,1.19263 2.32056,-0.52763 6.53082,-0.67544 9.35612,-0.32847 z"
    id="path28"
  />
</svg>
